<svg xmlns="http://www.w3.org/2000/svg" viewBox="0 0 32 32">
  <rect width="32" height="32" fill="#000"/>
  <path fill="#fff" transform="translate(4, 6) scale(0.11)" d="M120.75,112.42c0-16.13-6.28-31.29-17.68-42.69-11.4-11.4-26.57-17.68-42.69-17.68-12.67,0-24.75,3.88-34.87,11.08V25.5C25.5,11.42,14.08,0,0,0v147.3c0,14.08,11.42,25.5,25.5,25.5h0v-60.04c0-19.28,15.5-35.16,34.78-35.21,19.28-.05,34.97,15.61,34.97,34.87,0,16.13,6.28,31.29,17.68,42.69,11.4,11.4,26.56,17.68,42.69,17.68s31.29-6.28,42.69-17.68c11.4-11.4,17.68-26.57,17.68-42.69V0c-14.08,0-25.5,8.42-25.5,22.5v40.62c-10.13-7.2-22.2-11.08-34.87-11.08s-25.62,4.19-35.98,11.89c4.63,5.65,8.41,11.9,11.27,18.67.53,1.26,1.02,2.52,1.49,3.8,6.39-5.71,14.64-8.86,23.22-8.86,19.32,0,35.02,15.79,34.87,35.15-.15,18.97-15.63,34.46-34.6,34.6-19.35.15-35.15-15.55-35.15-34.87Z"/>
</svg>
